<?xml version="1.0" encoding="UTF-8"?>
<svg version="1.1" xmlns="http://www.w3.org/2000/svg" width="96" height="96">
<path d="M0 0 C0.495 2.475 0.495 2.475 1 5 C6.445 5.495 6.445 5.495 12 6 C12 6.99 12 7.98 12 9 C13.32 9 14.64 9 16 9 C16.495 11.475 16.495 11.475 17 14 C20.63 14.66 24.26 15.32 28 16 C28 33.49 28 50.98 28 69 C-5.28506098 82.31402439 -5.28506098 82.31402439 -16 80 C-18.32421875 78.69140625 -18.32421875 78.69140625 -20 77 C-20.25 73.3125 -20.25 73.3125 -20 70 C-21.22976562 70.05220703 -21.22976562 70.05220703 -22.484375 70.10546875 C-23.56203125 70.13253906 -24.6396875 70.15960938 -25.75 70.1875 C-27.35101562 70.23970703 -27.35101562 70.23970703 -28.984375 70.29296875 C-32.34736544 69.96625336 -33.63641253 69.36910987 -36 67 C-37.0044349 63.98669529 -37.14401031 61.91809818 -37.17700195 58.76586914 C-37.18983719 57.69788589 -37.20267242 56.62990265 -37.21589661 55.52955627 C-37.22328354 54.37640427 -37.23067047 53.22325226 -37.23828125 52.03515625 C-37.246353 50.85030136 -37.25442474 49.66544647 -37.26274109 48.44468689 C-37.27657705 45.93717918 -37.28730138 43.42965268 -37.29516602 40.92211914 C-37.31241609 37.08118312 -37.35631248 33.24109947 -37.40039062 29.40039062 C-37.41051422 26.96615217 -37.41903136 24.5319064 -37.42578125 22.09765625 C-37.44328934 20.94652847 -37.46079742 19.7954007 -37.47883606 18.60939026 C-37.47591049 17.53825485 -37.47298492 16.46711945 -37.4699707 15.36352539 C-37.47583694 14.42215225 -37.48170319 13.48077911 -37.48774719 12.51087952 C-36.85131213 9.23456794 -35.56398325 8.06866498 -33 6 C-30.27026367 4.99511719 -30.27026367 4.99511719 -27.16796875 4.296875 C-26.03939453 4.0390625 -24.91082031 3.78125 -23.74804688 3.515625 C-22.57306641 3.26296875 -21.39808594 3.0103125 -20.1875 2.75 C-19.02412109 2.481875 -17.86074219 2.21375 -16.66210938 1.9375 C-11.01502721 0.67759322 -5.79007531 -0.37191725 0 0 Z " fill="#FE3E02" transform="translate(52,8)"/>
<path d="M0 0 C0.495 2.475 0.495 2.475 1 5 C6.445 5.495 6.445 5.495 12 6 C12 7.32 12 8.64 12 10 C11.23856689 10.20157715 10.47713379 10.4031543 9.69262695 10.61083984 C6.23171986 11.52900202 2.7721065 12.45194988 -0.6875 13.375 C-1.88568359 13.69210938 -3.08386719 14.00921875 -4.31835938 14.3359375 C-5.47529297 14.6453125 -6.63222656 14.9546875 -7.82421875 15.2734375 C-8.88729248 15.55622559 -9.95036621 15.83901367 -11.0456543 16.13037109 C-14.38443324 17.06281353 -14.38443324 17.06281353 -19 19 C-19.33 35.83 -19.66 52.66 -20 70 C-32 70 -32 70 -36 67 C-37.0044349 63.98669529 -37.14401031 61.91809818 -37.17700195 58.76586914 C-37.18983719 57.69788589 -37.20267242 56.62990265 -37.21589661 55.52955627 C-37.22328354 54.37640427 -37.23067047 53.22325226 -37.23828125 52.03515625 C-37.246353 50.85030136 -37.25442474 49.66544647 -37.26274109 48.44468689 C-37.27657705 45.93717918 -37.28730138 43.42965268 -37.29516602 40.92211914 C-37.31241609 37.08118312 -37.35631248 33.24109947 -37.40039062 29.40039062 C-37.41051422 26.96615217 -37.41903136 24.5319064 -37.42578125 22.09765625 C-37.44328934 20.94652847 -37.46079742 19.7954007 -37.47883606 18.60939026 C-37.47591049 17.53825485 -37.47298492 16.46711945 -37.4699707 15.36352539 C-37.47583694 14.42215225 -37.48170319 13.48077911 -37.48774719 12.51087952 C-36.85131213 9.23456794 -35.56398325 8.06866498 -33 6 C-30.27026367 4.99511719 -30.27026367 4.99511719 -27.16796875 4.296875 C-26.03939453 4.0390625 -24.91082031 3.78125 -23.74804688 3.515625 C-22.57306641 3.26296875 -21.39808594 3.0103125 -20.1875 2.75 C-19.02412109 2.481875 -17.86074219 2.21375 -16.66210938 1.9375 C-11.01502721 0.67759322 -5.79007531 -0.37191725 0 0 Z " fill="#7E57C0" transform="translate(52,8)"/>
<path d="M0 0 C0 3.3 0 6.6 0 10 C-3.72795947 11.14978637 -7.45756767 12.29413142 -11.1875 13.4375 C-12.24259766 13.76298828 -13.29769531 14.08847656 -14.38476562 14.42382812 C-15.91713867 14.89272461 -15.91713867 14.89272461 -17.48046875 15.37109375 C-18.41785889 15.65911865 -19.35524902 15.94714355 -20.32104492 16.24389648 C-22.86811247 16.9627763 -25.39855335 17.51932033 -28 18 C-28 14.7 -28 11.4 -28 8 C-22.09872134 5.67359998 -16.20502685 3.88252038 -10.0625 2.3125 C-9.20076172 2.08755859 -8.33902344 1.86261719 -7.45117188 1.63085938 C-1.16071429 0 -1.16071429 0 0 0 Z " fill="#FFE7AE" transform="translate(76,40)"/>
<path d="M0 0 C-0.33 0.66 -0.66 1.32 -1 2 C-3.64901314 2.73766206 -6.25200846 3.36728318 -8.9375 3.9375 C-13.90280498 5.03062169 -18.74459863 6.16625784 -23.5625 7.8125 C-28.55045151 9.38988638 -33.20581638 9.39709181 -38 7 C-38 6.34 -38 5.68 -38 5 C-34.2151526 3.81039905 -30.42124239 2.65266914 -26.625 1.5 C-25.56410156 1.16613281 -24.50320312 0.83226562 -23.41015625 0.48828125 C-15.61318539 -1.85559343 -7.48525042 -4.25544449 0 0 Z " fill="#FBD4A7" transform="translate(75,24)"/>
<path d="M0 0 C0.495 1.98 0.495 1.98 1 4 C-3.20763149 4.98219908 -7.41622285 5.96022284 -11.625 6.9375 C-12.81480469 7.21529297 -14.00460938 7.49308594 -15.23046875 7.77929688 C-16.38417969 8.04677734 -17.53789063 8.31425781 -18.7265625 8.58984375 C-19.78439941 8.83597412 -20.84223633 9.08210449 -21.93212891 9.33569336 C-24.94417815 9.98791252 -27.95630514 10.51931162 -31 11 C-31 11.66 -31 12.32 -31 13 C-29.68 13.66 -28.36 14.32 -27 15 C-30.3125 15.3125 -30.3125 15.3125 -34 15 C-35.9375 12.5 -35.9375 12.5 -37 10 C-33.96323832 6.48408366 -31.67572195 5.31144761 -27.16796875 4.296875 C-26.03939453 4.0390625 -24.91082031 3.78125 -23.74804688 3.515625 C-22.57306641 3.26296875 -21.39808594 3.0103125 -20.1875 2.75 C-19.02412109 2.481875 -17.86074219 2.21375 -16.66210938 1.9375 C-11.01502721 0.67759322 -5.79007531 -0.37191725 0 0 Z " fill="#4B2DA3" transform="translate(52,8)"/>
<path d="M0 0 C1.09248047 0.13148437 1.09248047 0.13148437 2.20703125 0.265625 C4.1875 0.75 4.1875 0.75 7.1875 2.75 C1.26589877 5.08025974 -4.64967214 6.92194256 -10.8125 8.5 C-11.66328125 8.73332031 -12.5140625 8.96664063 -13.390625 9.20703125 C-19.3602832 10.73606947 -25.05677219 11.6278639 -30.8125 8.75 C-30.8125 8.09 -30.8125 7.43 -30.8125 6.75 C-27.979531 5.95701081 -25.14614215 5.16557728 -22.3125 4.375 C-21.52101563 4.15328125 -20.72953125 3.9315625 -19.9140625 3.703125 C-17.54901551 3.04401354 -15.18125617 2.39564064 -12.8125 1.75 C-11.71869019 1.44352539 -11.71869019 1.44352539 -10.6027832 1.13085938 C-6.92657842 0.14169188 -3.7870504 -0.51858708 0 0 Z " fill="#F2D3B1" transform="translate(51.8125,12.25)"/>
<path d="M0 0 C0.495 2.475 0.495 2.475 1 5 C-0.48886719 5.25523438 -0.48886719 5.25523438 -2.0078125 5.515625 C-10.28259968 6.97738797 -18.25723256 8.78323587 -26.3046875 11.23046875 C-29 12 -29 12 -31 12 C-31 12.66 -31 13.32 -31 14 C-29.35 14.33 -27.7 14.66 -26 15 C-26 15.66 -26 16.32 -26 17 C-33.75 16.25 -33.75 16.25 -36 14 C-35.625 11.375 -35.625 11.375 -35 9 C-28.2958081 6.67775544 -21.53082851 4.68137933 -14.6875 2.8125 C-13.71232422 2.53986328 -12.73714844 2.26722656 -11.73242188 1.98632812 C-10.79333984 1.72916016 -9.85425781 1.47199219 -8.88671875 1.20703125 C-8.04326904 0.9747583 -7.19981934 0.74248535 -6.33081055 0.50317383 C-4 0 -4 0 0 0 Z " fill="#BF3C18" transform="translate(68,17)"/>
</svg>
